<svg width="250" height="36" viewBox="0 0 250 36" fill="none" xmlns="http://www.w3.org/2000/svg">
<path d="M14.4 4C6.39388 4.31507 0 10.9076 0 18.9941C0 19.3603 0.0131086 19.7233 0.0388818 20.0829C3.16497 15.4188 8.41265 12.2974 14.4 12.1012V4Z" fill="#69BE82"/>
<path d="M15.9 12.1135C21.7624 12.4023 26.8874 15.4968 29.9611 20.0829C29.9869 19.7233 30 19.3603 30 18.9941C30 11.0089 23.7653 4.48041 15.9 4.01478V12.1135Z" fill="#69BE82"/>
<path d="M29.6081 22.4167C26.8453 17.1694 21.3402 13.592 15 13.592C8.65976 13.592 3.15474 17.1694 0.391913 22.4167C0.600208 23.3099 0.888254 24.1725 1.24813 24.9965C3.5628 19.6967 8.84904 15.9929 15 15.9929C21.151 15.9929 26.4372 19.6967 28.7519 24.9965C29.1117 24.1725 29.3998 23.3099 29.6081 22.4167Z" fill="#69BE82"/>
<path d="M15 17.4935C9.01795 17.4935 3.94465 21.3859 2.17271 26.777C2.57641 27.4415 3.03024 28.0721 3.52895 28.6636C5.03765 23.7592 9.60271 20.1946 15 20.1946C20.3973 20.1946 24.9623 23.7592 26.4711 28.6636C26.9698 28.0721 27.4236 27.4415 27.8273 26.777C26.0554 21.3859 20.9821 17.4935 15 17.4935Z" fill="#69BE82"/>
<path d="M25.2572 29.9433C24.2253 25.2262 20.0249 21.6952 15 21.6952C9.97514 21.6952 5.77468 25.2262 4.74275 29.9433C5.2235 30.3942 5.73395 30.8138 6.27086 31.1988C7.25251 27.2902 10.7884 24.3962 15 24.3962C19.2116 24.3962 22.7475 27.2902 23.7291 31.1988C24.2661 30.8138 24.7765 30.3942 25.2572 29.9433Z" fill="#69BE82"/>
<path d="M15 34C17.6831 34 20.2017 33.2952 22.3809 32.0607C21.7497 28.5558 18.6853 25.8968 15 25.8968C11.3147 25.8968 8.25029 28.5558 7.6191 32.0607C9.79828 33.2952 12.3169 34 15 34Z" fill="#69BE82"/>
<path d="M60.0785 8H64.9385V29H60.0785V8ZM50.5385 29H45.6785V8H50.5385V29ZM60.4385 20.39H50.1785V16.28H60.4385V20.39ZM71.617 35.06C70.777 35.06 69.947 34.93 69.127 34.67C68.307 34.41 67.637 34.05 67.117 33.59L68.827 30.26C69.187 30.58 69.597 30.83 70.057 31.01C70.537 31.19 71.007 31.28 71.467 31.28C72.127 31.28 72.647 31.12 73.027 30.8C73.427 30.5 73.787 29.99 74.107 29.27L74.947 27.29L75.307 26.78L81.097 12.86H85.597L78.307 29.99C77.787 31.29 77.187 32.31 76.507 33.05C75.847 33.79 75.107 34.31 74.287 34.61C73.487 34.91 72.597 35.06 71.617 35.06ZM74.377 29.63L67.177 12.86H72.007L77.587 26.36L74.377 29.63ZM97.0467 29.24C95.6867 29.24 94.4967 28.94 93.4767 28.34C92.4567 27.74 91.6567 26.83 91.0767 25.61C90.5167 24.37 90.2367 22.81 90.2367 20.93C90.2367 19.03 90.5067 17.47 91.0467 16.25C91.5867 15.03 92.3667 14.12 93.3867 13.52C94.4067 12.92 95.6267 12.62 97.0467 12.62C98.5667 12.62 99.9267 12.97 101.127 13.67C102.347 14.35 103.307 15.31 104.007 16.55C104.727 17.79 105.087 19.25 105.087 20.93C105.087 22.63 104.727 24.1 104.007 25.34C103.307 26.58 102.347 27.54 101.127 28.22C99.9267 28.9 98.5667 29.24 97.0467 29.24ZM87.5067 34.82V12.86H91.9767V16.16L91.8867 20.96L92.1867 25.73V34.82H87.5067ZM96.2367 25.4C97.0167 25.4 97.7067 25.22 98.3067 24.86C98.9267 24.5 99.4167 23.99 99.7767 23.33C100.157 22.65 100.347 21.85 100.347 20.93C100.347 19.99 100.157 19.19 99.7767 18.53C99.4167 17.87 98.9267 17.36 98.3067 17C97.7067 16.64 97.0167 16.46 96.2367 16.46C95.4567 16.46 94.7567 16.64 94.1367 17C93.5167 17.36 93.0267 17.87 92.6667 18.53C92.3067 19.19 92.1267 19.99 92.1267 20.93C92.1267 21.85 92.3067 22.65 92.6667 23.33C93.0267 23.99 93.5167 24.5 94.1367 24.86C94.7567 25.22 95.4567 25.4 96.2367 25.4ZM116.23 29.24C114.39 29.24 112.77 28.88 111.37 28.16C109.99 27.44 108.92 26.46 108.16 25.22C107.4 23.96 107.02 22.53 107.02 20.93C107.02 19.31 107.39 17.88 108.13 16.64C108.89 15.38 109.92 14.4 111.22 13.7C112.52 12.98 113.99 12.62 115.63 12.62C117.21 12.62 118.63 12.96 119.89 13.64C121.17 14.3 122.18 15.26 122.92 16.52C123.66 17.76 124.03 19.25 124.03 20.99C124.03 21.17 124.02 21.38 124 21.62C123.98 21.84 123.96 22.05 123.94 22.25H110.83V19.52H121.48L119.68 20.33C119.68 19.49 119.51 18.76 119.17 18.14C118.83 17.52 118.36 17.04 117.76 16.7C117.16 16.34 116.46 16.16 115.66 16.16C114.86 16.16 114.15 16.34 113.53 16.7C112.93 17.04 112.46 17.53 112.12 18.17C111.78 18.79 111.61 19.53 111.61 20.39V21.11C111.61 21.99 111.8 22.77 112.18 23.45C112.58 24.11 113.13 24.62 113.83 24.98C114.55 25.32 115.39 25.49 116.35 25.49C117.21 25.49 117.96 25.36 118.6 25.1C119.26 24.84 119.86 24.45 120.4 23.93L122.89 26.63C122.15 27.47 121.22 28.12 120.1 28.58C118.98 29.02 117.69 29.24 116.23 29.24ZM127.145 29V12.86H131.615V17.42L130.985 16.1C131.465 14.96 132.235 14.1 133.295 13.52C134.355 12.92 135.645 12.62 137.165 12.62V16.94C136.965 16.92 136.785 16.91 136.625 16.91C136.465 16.89 136.295 16.88 136.115 16.88C134.835 16.88 133.795 17.25 132.995 17.99C132.215 18.71 131.825 19.84 131.825 21.38V29H127.145ZM149.517 29.24C148.157 29.24 146.967 28.94 145.947 28.34C144.927 27.74 144.127 26.83 143.547 25.61C142.987 24.37 142.707 22.81 142.707 20.93C142.707 19.03 142.977 17.47 143.517 16.25C144.057 15.03 144.837 14.12 145.857 13.52C146.877 12.92 148.097 12.62 149.517 12.62C151.037 12.62 152.397 12.97 153.597 13.67C154.817 14.35 155.777 15.31 156.477 16.55C157.197 17.79 157.557 19.25 157.557 20.93C157.557 22.63 157.197 24.1 156.477 25.34C155.777 26.58 154.817 27.54 153.597 28.22C152.397 28.9 151.037 29.24 149.517 29.24ZM139.977 34.82V12.86H144.447V16.16L144.357 20.96L144.657 25.73V34.82H139.977ZM148.707 25.4C149.487 25.4 150.177 25.22 150.777 24.86C151.397 24.5 151.887 23.99 152.247 23.33C152.627 22.65 152.817 21.85 152.817 20.93C152.817 19.99 152.627 19.19 152.247 18.53C151.887 17.87 151.397 17.36 150.777 17C150.177 16.64 149.487 16.46 148.707 16.46C147.927 16.46 147.227 16.64 146.607 17C145.987 17.36 145.497 17.87 145.137 18.53C144.777 19.19 144.597 19.99 144.597 20.93C144.597 21.85 144.777 22.65 145.137 23.33C145.497 23.99 145.987 24.5 146.607 24.86C147.227 25.22 147.927 25.4 148.707 25.4ZM160.69 29V6.74H165.37V29H160.69ZM179.614 29V25.85L179.314 25.16V19.52C179.314 18.52 179.004 17.74 178.384 17.18C177.784 16.62 176.854 16.34 175.594 16.34C174.734 16.34 173.884 16.48 173.044 16.76C172.224 17.02 171.524 17.38 170.944 17.84L169.264 14.57C170.144 13.95 171.204 13.47 172.444 13.13C173.684 12.79 174.944 12.62 176.224 12.62C178.684 12.62 180.594 13.2 181.954 14.36C183.314 15.52 183.994 17.33 183.994 19.79V29H179.614ZM174.694 29.24C173.434 29.24 172.354 29.03 171.454 28.61C170.554 28.17 169.864 27.58 169.384 26.84C168.904 26.1 168.664 25.27 168.664 24.35C168.664 23.39 168.894 22.55 169.354 21.83C169.834 21.11 170.584 20.55 171.604 20.15C172.624 19.73 173.954 19.52 175.594 19.52H179.884V22.25H176.104C175.004 22.25 174.244 22.43 173.824 22.79C173.424 23.15 173.224 23.6 173.224 24.14C173.224 24.74 173.454 25.22 173.914 25.58C174.394 25.92 175.044 26.09 175.864 26.09C176.644 26.09 177.344 25.91 177.964 25.55C178.584 25.17 179.034 24.62 179.314 23.9L180.034 26.06C179.694 27.1 179.074 27.89 178.174 28.43C177.274 28.97 176.114 29.24 174.694 29.24ZM198.039 12.62C199.319 12.62 200.459 12.88 201.459 13.4C202.479 13.9 203.279 14.68 203.859 15.74C204.439 16.78 204.729 18.12 204.729 19.76V29H200.049V20.48C200.049 19.18 199.759 18.22 199.179 17.6C198.619 16.98 197.819 16.67 196.779 16.67C196.039 16.67 195.369 16.83 194.769 17.15C194.189 17.45 193.729 17.92 193.389 18.56C193.069 19.2 192.909 20.02 192.909 21.02V29H188.229V12.86H192.699V17.33L191.859 15.98C192.439 14.9 193.269 14.07 194.349 13.49C195.429 12.91 196.659 12.62 198.039 12.62Z" fill="#69BE82"/>
</svg>
