<svg width="160" height="61" viewBox="0 0 160 61" fill="none" xmlns="http://www.w3.org/2000/svg">
<g clip-path="url(#clip0_688_197)">
<path d="M62.6864 30.2847H63.8264V29.6977C63.8264 25.8647 61.8584 24.5527 59.0964 24.5527C56.0924 24.5527 54.1584 26.2097 54.1584 26.2097L53.3304 25.0357C53.3304 25.0357 55.4024 23.1367 59.1654 23.1367C63.1364 23.1367 65.2774 25.3467 65.2774 29.6627V40.8157H63.8274V38.5367C63.8274 37.6047 63.9654 36.9827 63.9654 36.9827H63.8964C63.9314 36.9827 62.3434 41.2297 57.8544 41.2297C55.0574 41.2297 51.9844 39.6757 51.9844 36.2237C51.9824 30.3537 59.6134 30.2847 62.6864 30.2847V30.2847ZM57.9214 39.8837C61.6844 39.8837 63.8264 35.9817 63.8264 32.5637V31.6317H62.7204C59.7854 31.6317 53.5014 31.6317 53.5014 36.1207C53.5014 37.9507 54.9864 39.8837 57.9214 39.8837V39.8837Z" fill="#C9B570"/>
<path fill-rule="evenodd" clip-rule="evenodd" d="M63.3373 38.0929C62.5422 39.3512 60.8398 41.2297 57.8544 41.2297C55.0574 41.2297 51.9844 39.6757 51.9844 36.2237C51.9824 30.3537 59.6134 30.2847 62.6864 30.2847H63.8264V29.6977C63.8264 25.8647 61.8584 24.5527 59.0964 24.5527C56.9009 24.5527 55.2769 25.4378 54.5618 25.9142C54.2985 26.0897 54.1584 26.2097 54.1584 26.2097L53.3304 25.0357C53.3304 25.0357 55.4024 23.1367 59.1654 23.1367C63.1364 23.1367 65.2774 25.3467 65.2774 29.6627V40.8157H63.8274V38.5367C63.8274 38.4353 63.829 38.3376 63.8319 38.244C63.8412 37.9441 63.8637 37.6859 63.8875 37.4826C63.8905 37.4577 63.8934 37.4335 63.8964 37.4102C63.9309 37.1382 63.9654 36.9827 63.9654 36.9827H63.8964C63.8971 36.9827 63.8971 36.9847 63.8964 36.9885C63.8899 37.0212 63.828 37.1904 63.7028 37.4439C63.6139 37.624 63.493 37.8465 63.3373 38.0929ZM63.3274 38.9792V41.3157H65.7774V29.6627C65.7774 27.4285 65.2232 25.6543 64.074 24.4379C62.9202 23.2165 61.242 22.6367 59.1654 22.6367C57.1975 22.6367 55.6651 23.1337 54.6203 23.6355C54.0983 23.8862 53.698 24.1382 53.4252 24.3301C53.2888 24.4261 53.184 24.5072 53.1117 24.5658C53.0756 24.5952 53.0475 24.6189 53.0276 24.6361L53.0039 24.6569L52.9967 24.6633L52.9942 24.6656L52.9933 24.6664C52.9931 24.6666 52.9925 24.6671 53.3304 25.0357L52.9925 24.6671L52.6682 24.9644L54.0664 26.9469L54.4828 26.5902L54.4847 26.5886L54.4966 26.5788C54.5082 26.5693 54.527 26.5543 54.5527 26.5345C54.6042 26.4947 54.6835 26.4359 54.7888 26.3642C54.9998 26.2206 55.314 26.0265 55.7181 25.8316C56.527 25.4415 57.6871 25.0527 59.0964 25.0527C60.4064 25.0527 61.441 25.3642 62.1501 26.0478C62.8558 26.7282 63.3264 27.8616 63.3264 29.6977V29.7847H62.6864C61.1575 29.7847 58.4045 29.7985 56.0265 30.5778C54.8327 30.9691 53.6961 31.5645 52.8551 32.4814C52.0038 33.4094 51.4839 34.6364 51.4844 36.2237M63.3274 38.9792C63.2105 39.131 63.0828 39.2856 62.9438 39.4403C61.9225 40.5774 60.277 41.7297 57.8544 41.7297C56.3726 41.7297 54.7953 41.3197 53.5748 40.4244C52.3377 39.517 51.4844 38.12 51.4844 36.2237M61.8787 37.2141C62.8183 35.9038 63.3264 34.1778 63.3264 32.5637V32.1317H62.7204C61.2402 32.1317 59.0076 32.135 57.1493 32.6731C56.2239 32.9411 55.4347 33.3302 54.8816 33.8801C54.3422 34.4164 54.0014 35.13 54.0014 36.1207C54.0014 37.6577 55.2454 39.3837 57.9214 39.3837C59.6082 39.3837 60.9453 38.5158 61.8787 37.2141ZM62.7204 31.6317C59.7854 31.6317 53.5014 31.6317 53.5014 36.1207C53.5014 37.9507 54.9864 39.8837 57.9214 39.8837C61.6844 39.8837 63.8264 35.9817 63.8264 32.5637V31.6317H62.7204Z" fill="#C9B570"/>
<path d="M70.558 37.6387C70.558 37.6387 72.491 39.8137 75.909 39.8137C78.016 39.8137 79.88 38.7087 79.88 36.5677C79.88 32.1827 70.384 33.4257 70.384 27.7977C70.384 24.7247 72.974 23.1367 75.909 23.1367C79.431 23.1367 81.02 25.0017 81.02 25.0017L80.156 26.1757C80.156 26.1757 78.741 24.5527 75.806 24.5527C73.838 24.5527 71.904 25.4507 71.904 27.6947C71.904 32.1837 81.4 30.8367 81.4 36.5687C81.4 39.3307 79.052 41.2297 75.875 41.2297C71.697 41.2297 69.625 38.7437 69.625 38.7437L70.558 37.6387Z" fill="#69A969"/>
<path fill-rule="evenodd" clip-rule="evenodd" d="M70.9317 37.3066L70.9327 37.3076L70.9447 37.3205C70.9563 37.3328 70.9751 37.3525 71.0011 37.3784C71.0531 37.4304 71.1335 37.5074 71.2414 37.6012C71.4575 37.7889 71.7821 38.0425 72.2081 38.2969C73.0597 38.8055 74.3097 39.3137 75.909 39.3137C76.8824 39.3137 77.7625 39.0575 78.3857 38.5928C78.994 38.1392 79.38 37.4736 79.38 36.5677C79.38 35.6993 78.9295 35.0904 78.1207 34.5561C77.3889 34.0727 76.4373 33.6991 75.3945 33.2896C75.2473 33.2318 75.0983 33.1733 74.9478 33.1137C73.7663 32.6454 72.5072 32.1111 71.5473 31.3095C70.5613 30.4861 69.884 29.3749 69.884 27.7977C69.884 26.1032 70.6058 24.7927 71.7408 23.9187C72.8618 23.0555 74.3581 22.6367 75.909 22.6367C77.7625 22.6367 79.1234 23.1285 80.0285 23.6324C80.4797 23.8836 80.8157 24.1366 81.0421 24.3307C81.1553 24.4277 81.2413 24.5101 81.3007 24.5704C81.3305 24.6005 81.3536 24.6251 81.3702 24.6433C81.3785 24.6523 81.3852 24.6598 81.3902 24.6655L81.3966 24.6728L81.3989 24.6755L81.3998 24.6766C81.4 24.6768 81.4006 24.6775 81.02 25.0017C81.02 25.0017 79.431 23.1367 75.909 23.1367C72.974 23.1367 70.384 24.7247 70.384 27.7977C70.384 30.7871 73.0631 31.8379 75.5752 32.8233C77.7926 33.6931 79.88 34.5118 79.88 36.5677C79.88 38.7087 78.016 39.8137 75.909 39.8137C73.3539 39.8137 71.6286 38.5983 70.9204 37.9846C70.6812 37.7773 70.558 37.6387 70.558 37.6387L69.625 38.7437L69.2409 39.0638L68.9724 38.7416L70.5483 36.8752L70.9308 37.3056L70.9317 37.3066ZM79.785 25.8362C79.1906 25.3604 77.8765 24.5527 75.806 24.5527C73.838 24.5527 71.904 25.4507 71.904 27.6947C71.904 29.8022 73.9971 30.6234 76.2179 31.4947C78.7274 32.4792 81.4 33.5278 81.4 36.5687C81.4 39.3307 79.052 41.2297 75.875 41.2297C71.697 41.2297 69.625 38.7437 69.625 38.7437C69.2409 39.0638 69.2407 39.0636 69.2409 39.0638L69.2416 39.0647L69.2425 39.0658L69.2449 39.0686L69.2521 39.077C69.2579 39.0837 69.2658 39.0928 69.2757 39.1039C69.2956 39.1263 69.3238 39.1573 69.3603 39.1956C69.4334 39.2722 69.5399 39.3784 69.68 39.5042C69.9599 39.7556 70.3752 40.0864 70.9268 40.4159C72.032 41.0762 73.6821 41.7297 75.875 41.7297C79.2388 41.7297 81.9 39.6884 81.9 36.5687C81.9 34.9687 81.2256 33.8444 80.2384 33.0128C79.2778 32.2036 78.0176 31.669 76.8362 31.2008C76.6891 31.1425 76.5434 31.0852 76.3994 31.0287C75.3528 30.6176 74.3986 30.2429 73.6654 29.7532C72.8599 29.2152 72.404 28.5939 72.404 27.6947C72.404 26.7406 72.8038 26.1071 73.4016 25.6933C74.022 25.2638 74.8876 25.0527 75.806 25.0527C77.1771 25.0527 78.1809 25.4309 78.8363 25.7999C79.1651 25.985 79.4075 26.1686 79.5647 26.3027C79.6433 26.3696 79.7003 26.424 79.7361 26.4597C79.754 26.4776 79.7665 26.4907 79.7736 26.4984L79.7802 26.5055C79.7804 26.5058 79.7806 26.506 79.7802 26.5055L80.189 26.9744L81.6575 24.979L81.4006 24.6775L81.02 25.0017L80.156 26.1757C80.156 26.1757 80.0332 26.0349 79.785 25.8362Z" fill="#69A969"/>
<path d="M86.7155 24.9689H84.4375V23.6569H86.7155V18.7539H88.1665V23.6569H92.6895V24.9689H88.1665V34.4649C88.1665 39.0229 90.8945 39.6099 92.2745 39.6099C92.7585 39.6099 93.0685 39.5409 93.0685 39.5409V40.8879C93.0685 40.8879 92.7235 40.9569 92.2055 40.9569C90.4095 40.9569 86.7145 40.3009 86.7145 34.5689V24.9689H86.7155Z" fill="#5CACD2"/>
<path fill-rule="evenodd" clip-rule="evenodd" d="M83.9375 25.4689V23.1569H86.2155V18.2539H88.6665V23.1569H93.1895V25.4689H88.6665V34.4649C88.6665 36.6408 89.3134 37.7674 90.0243 38.3635C90.7521 38.9738 91.6431 39.1099 92.2745 39.1099C92.493 39.1099 92.6706 39.0943 92.791 39.0793C92.8511 39.0718 92.8966 39.0644 92.9255 39.0593C92.9311 39.0583 92.936 39.0574 92.9403 39.0566C92.9472 39.0554 92.9525 39.0543 92.9561 39.0536L92.9599 39.0528L92.9609 39.0526C92.9612 39.0526 92.9612 39.0526 92.9609 39.0526L93.5685 38.9174V41.2978L93.1666 41.3782L93.0685 40.8879V39.5409C93.0685 39.5409 92.8804 39.5828 92.5685 39.6013C92.48 39.6065 92.3815 39.6099 92.2745 39.6099C90.8945 39.6099 88.1665 39.0229 88.1665 34.4649V24.9689H92.6895V23.6569H88.1665V18.7539H86.7155V23.6569H84.4375V24.9689H86.7145V34.5689C86.7145 40.3009 90.4095 40.9569 92.2055 40.9569C92.7235 40.9569 93.0685 40.8879 93.0685 40.8879C93.1666 41.3782 93.1666 41.3782 93.1666 41.3782L93.1633 41.3788L93.1581 41.3799L93.1415 41.3829C93.1279 41.3854 93.1091 41.3886 93.0855 41.3924C93.0382 41.4 92.9715 41.4096 92.888 41.4192C92.7213 41.4382 92.4864 41.4569 92.2055 41.4569C91.2604 41.4569 89.7572 41.2868 88.4822 40.3092C87.1822 39.3123 86.2145 37.5507 86.2145 34.5689V25.4689H83.9375Z" fill="#5CACD2"/>
<path d="M97.0039 23.5521H98.4539V26.8321C98.4539 27.6261 98.3149 28.2481 98.3149 28.2481H98.3839C99.2469 25.5891 101.181 23.4141 103.909 23.4141C104.427 23.4141 104.911 23.5181 104.911 23.5181V24.9681C104.911 24.9681 104.496 24.8991 104.117 24.8991C101.424 24.8991 99.7319 27.1781 98.9719 29.7331C98.5919 30.9421 98.4539 32.2191 98.4539 33.3591V40.8171H97.0039V23.5521Z" fill="#357D4E"/>
<path fill-rule="evenodd" clip-rule="evenodd" d="M96.5039 23.0521H98.9539V25.8667C100.06 24.1524 101.736 22.9141 103.909 22.9141C104.199 22.9141 104.474 22.943 104.673 22.9709C104.774 22.985 104.858 22.9991 104.917 23.0099C104.947 23.0153 104.97 23.0199 104.987 23.0233L105.007 23.0273L105.013 23.0286L105.015 23.029L105.016 23.0292C105.016 23.0292 105.016 23.0292 104.911 23.5181C104.911 23.5181 104.427 23.4141 103.909 23.4141C101.673 23.4141 99.9705 24.8752 98.9538 26.8663C98.7301 27.3045 98.5396 27.7684 98.3839 28.2481H98.3149C98.3149 28.2481 98.3165 28.2409 98.3194 28.2271C98.3298 28.177 98.3568 28.0396 98.3839 27.8415C98.4188 27.5865 98.4539 27.231 98.4539 26.8321V23.5521H97.0039V40.8171H98.4539V33.3591C98.4539 32.2191 98.5919 30.9421 98.9719 29.7331C99.7319 27.1781 101.424 24.8991 104.117 24.8991C104.215 24.8991 104.316 24.9037 104.411 24.9106C104.683 24.9302 104.911 24.9681 104.911 24.9681V23.5181L105.016 23.0292L105.411 23.1141V25.5581L104.829 25.4613L104.827 25.4609L104.815 25.4591C104.805 25.4575 104.789 25.4551 104.769 25.4522C104.728 25.4463 104.669 25.4383 104.599 25.4303C104.457 25.4141 104.28 25.3991 104.117 25.3991C101.766 25.3991 100.191 27.3879 99.4512 29.8756L99.449 29.883C99.0879 31.0319 98.9539 32.2561 98.9539 33.3591V41.3171H96.5039V23.0521Z" fill="#357D4E"/>
<path d="M117.72 30.4577H119.102V29.6977C119.102 25.8647 117.134 24.5527 114.233 24.5527C111.333 24.5527 109.433 26.2097 109.433 26.2097L108.605 25.0357C108.605 25.0357 110.642 23.1367 114.302 23.1367C117.927 23.1367 119.654 24.7597 120.241 27.1767H120.31C121.726 24.4837 124.212 23.1367 127.147 23.1367C131.739 23.1367 134.122 26.6927 134.122 30.8367C134.122 31.2167 134.053 31.8037 134.053 31.8037H120.552C120.552 36.9827 123.556 39.8147 127.596 39.8147C130.911 39.8147 132.948 37.6397 132.948 37.6397L133.742 38.8477C133.742 38.8477 131.325 41.2297 127.596 41.2297C124.005 41.2297 121.07 39.2617 119.827 35.9467H119.758C119.551 36.8787 117.963 41.2297 113.232 41.2297C110.09 41.2297 107.293 39.5377 107.293 36.2237C107.293 30.5607 113.612 30.4577 117.72 30.4577V30.4577ZM113.232 39.8837C116.995 39.8837 119.102 35.9817 119.102 32.5637V31.8037H116.72C113.543 31.8037 108.813 32.0457 108.813 36.1197C108.812 38.0537 110.331 39.8837 113.232 39.8837V39.8837ZM132.603 30.4577C132.43 26.2447 129.771 24.5187 127.044 24.5187C123.867 24.5187 121.277 26.4867 120.69 30.4577H132.603Z" fill="#B7B9AE"/>
<path fill-rule="evenodd" clip-rule="evenodd" d="M133.742 38.8477C133.742 38.8477 131.325 41.2297 127.596 41.2297C124.24 41.2297 121.458 39.5112 120.093 36.581C120 36.3807 119.913 36.1748 119.833 35.9634C119.831 35.9579 119.829 35.9523 119.827 35.9467H119.758C119.756 35.9558 119.754 35.9653 119.752 35.975C119.717 36.1208 119.653 36.338 119.554 36.6023C118.98 38.1294 117.226 41.2297 113.232 41.2297C110.09 41.2297 107.293 39.5377 107.293 36.2237C107.293 30.5607 113.612 30.4577 117.72 30.4577H119.102V29.6977C119.102 25.8647 117.134 24.5527 114.233 24.5527C112.119 24.5527 110.536 25.4332 109.834 25.9105C109.573 26.088 109.433 26.2097 109.433 26.2097L108.605 25.0357C108.605 25.0357 110.642 23.1367 114.302 23.1367C117.621 23.1367 119.349 24.4976 120.068 26.5829C120.129 26.7618 120.184 26.9459 120.231 27.135C120.234 27.1489 120.238 27.1628 120.241 27.1767H120.31C120.313 27.1703 120.317 27.1639 120.32 27.1575C120.413 26.9811 120.511 26.8104 120.614 26.6456C122.066 24.3066 124.412 23.1367 127.147 23.1367C131.739 23.1367 134.122 26.6927 134.122 30.8367C134.122 31.2167 134.053 31.8037 134.053 31.8037H120.552C120.552 31.9729 120.555 32.1396 120.562 32.3037C120.749 37.1647 123.688 39.8147 127.596 39.8147C130.079 39.8147 131.845 38.5948 132.575 37.9822C132.82 37.7768 132.948 37.6397 132.948 37.6397L133.742 38.8477ZM132.583 37.2977C132.583 37.2975 132.583 37.2975 132.583 37.2977L133.017 36.8345L134.385 38.9159L134.093 39.2038L133.742 38.8477C134.093 39.2038 134.093 39.2037 134.093 39.2038L134.091 39.2053L134.089 39.2077L134.081 39.215L134.056 39.2393C134.034 39.2597 134.003 39.2883 133.963 39.324C133.882 39.3953 133.766 39.495 133.615 39.6134C133.313 39.8501 132.872 40.1631 132.31 40.4757C131.188 41.0999 129.568 41.7297 127.596 41.7297C124.213 41.7297 121.359 40.066 119.846 37.2078C119.576 37.8187 119.165 38.5576 118.574 39.2598C117.485 40.5524 115.774 41.7297 113.232 41.7297C111.578 41.7297 109.979 41.2853 108.78 40.3663C107.567 39.4362 106.793 38.0392 106.793 36.2237C106.793 34.7085 107.218 33.5245 107.957 32.6179C108.689 31.7187 109.698 31.1317 110.801 30.7452C112.988 29.9788 115.681 29.9577 117.72 29.9577H118.602V29.6977C118.602 27.8615 118.131 26.7308 117.412 26.0514C116.687 25.3669 115.618 25.0527 114.233 25.0527C112.879 25.0527 111.755 25.4397 110.967 25.8294C110.574 26.0239 110.267 26.2179 110.061 26.3613C109.957 26.433 109.88 26.4918 109.829 26.5316C109.804 26.5514 109.786 26.5664 109.774 26.5759L109.763 26.5857L109.761 26.5868L109.344 26.9509L107.945 24.9674L108.264 24.67L108.605 25.0357C108.264 24.67 108.264 24.6702 108.264 24.67L108.265 24.6693L108.266 24.6685L108.268 24.6662L108.275 24.6597L108.299 24.639C108.318 24.6218 108.346 24.598 108.381 24.5687C108.452 24.51 108.555 24.4288 108.689 24.3327C108.957 24.1407 109.349 23.8885 109.861 23.6374C110.884 23.1349 112.383 22.6367 114.302 22.6367C116.187 22.6367 117.639 23.0589 118.708 23.8482C119.492 24.4277 120.041 25.1839 120.402 26.0551C121.964 23.7769 124.381 22.6367 127.147 22.6367C129.585 22.6367 131.472 23.5867 132.741 25.1131C134 26.6281 134.622 28.674 134.622 30.8367C134.622 31.0499 134.603 31.3099 134.586 31.5069C134.577 31.6075 134.568 31.6957 134.561 31.7588L134.553 31.8336L134.55 31.8542L134.55 31.8598L134.55 31.8614L134.498 32.3037H121.062C121.152 34.5487 121.852 36.2529 122.926 37.4115C124.075 38.652 125.697 39.3147 127.596 39.3147C129.142 39.3147 130.393 38.8078 131.261 38.2963C131.695 38.0408 132.031 37.7859 132.256 37.5967C132.369 37.5022 132.453 37.4245 132.508 37.3719C132.536 37.3455 132.556 37.3255 132.568 37.3128L132.582 37.2995L132.583 37.2977ZM109.313 36.12C109.313 36.9544 109.639 37.7619 110.277 38.363C110.913 38.9624 111.889 39.3837 113.232 39.3837C114.918 39.3837 116.246 38.5165 117.171 37.2158C118.102 35.906 118.602 34.1796 118.602 32.5637V32.3037H116.72C115.126 32.3037 113.232 32.3679 111.745 32.9043C111.009 33.1698 110.405 33.54 109.987 34.0455C109.575 34.5427 109.313 35.206 109.313 36.12ZM119.102 31.8037V32.5637C119.102 35.9817 116.995 39.8837 113.232 39.8837C110.331 39.8837 108.812 38.0537 108.813 36.1197C108.813 32.0457 113.543 31.8037 116.72 31.8037H119.102ZM130.44 26.274C129.521 25.4169 128.304 25.0187 127.044 25.0187C125.561 25.0187 124.242 25.4765 123.227 26.3737C122.318 27.1774 121.623 28.3606 121.287 29.9577H132.068C131.9 28.2405 131.273 27.0504 130.44 26.274ZM132.57 29.9577C132.214 26.1077 129.66 24.5187 127.044 24.5187C124.003 24.5187 121.5 26.3215 120.776 29.9577C120.744 30.1207 120.715 30.2874 120.69 30.4577H132.603C132.596 30.287 132.585 30.1203 132.57 29.9577Z" fill="#B7B9AE"/>
<path d="M148.278 30.2847H149.418V29.6977C149.418 25.8647 147.45 24.5527 144.688 24.5527C141.684 24.5527 139.75 26.2097 139.75 26.2097L138.922 25.0357C138.922 25.0357 140.994 23.1367 144.757 23.1367C148.728 23.1367 150.869 25.3467 150.869 29.6627V40.8157H149.419V38.5367C149.419 37.6047 149.557 36.9827 149.557 36.9827H149.488C149.523 36.9827 147.935 41.2297 143.446 41.2297C140.649 41.2297 137.576 39.6757 137.576 36.2237C137.574 30.3537 145.205 30.2847 148.278 30.2847V30.2847ZM143.513 39.8837C147.276 39.8837 149.418 35.9817 149.418 32.5637V31.6317H148.313C145.378 31.6317 139.094 31.6317 139.094 36.1207C139.093 37.9507 140.578 39.8837 143.513 39.8837V39.8837Z" fill="#DD9483"/>
<path fill-rule="evenodd" clip-rule="evenodd" d="M148.929 38.0929C148.134 39.3512 146.432 41.2297 143.446 41.2297C140.649 41.2297 137.576 39.6757 137.576 36.2237C137.574 30.3537 145.205 30.2847 148.278 30.2847H149.418V29.6977C149.418 25.8647 147.45 24.5527 144.688 24.5527C142.493 24.5527 140.869 25.4378 140.154 25.9142C139.89 26.0897 139.75 26.2097 139.75 26.2097L138.922 25.0357C138.922 25.0357 140.994 23.1367 144.757 23.1367C148.728 23.1367 150.869 25.3467 150.869 29.6627V40.8157H149.419V38.5367C149.419 38.4353 149.421 38.3376 149.424 38.244C149.433 37.9441 149.455 37.6859 149.479 37.4826C149.482 37.4577 149.485 37.4335 149.488 37.4102C149.523 37.1382 149.557 36.9827 149.557 36.9827H149.488C149.489 36.9827 149.489 36.9847 149.488 36.9885C149.482 37.0212 149.42 37.1904 149.295 37.4439C149.206 37.624 149.085 37.8465 148.929 38.0929ZM148.919 38.9792V41.3157H151.369V29.6627C151.369 27.4285 150.815 25.6543 149.666 24.4379C148.512 23.2165 146.834 22.6367 144.757 22.6367C142.789 22.6367 141.257 23.1337 140.212 23.6355C139.69 23.8862 139.29 24.1382 139.017 24.3301C138.881 24.4261 138.776 24.5072 138.704 24.5658C138.667 24.5952 138.639 24.6189 138.619 24.6361L138.596 24.6569L138.589 24.6633L138.586 24.6656L138.585 24.6664C138.585 24.6666 138.584 24.6671 138.922 25.0357L138.584 24.6671L138.26 24.9644L139.658 26.9469L140.075 26.5902L140.076 26.5886L140.088 26.5788C140.1 26.5693 140.119 26.5543 140.145 26.5345C140.196 26.4947 140.275 26.4359 140.381 26.3642C140.592 26.2206 140.906 26.0265 141.31 25.8316C142.119 25.4415 143.279 25.0527 144.688 25.0527C145.998 25.0527 147.033 25.3642 147.742 26.0478C148.448 26.7282 148.918 27.8616 148.918 29.6977V29.7847H148.278C146.749 29.7847 143.996 29.7985 141.618 30.5778C140.424 30.9691 139.288 31.5645 138.447 32.4814C137.596 33.4094 137.076 34.6364 137.076 36.2237M148.919 38.9792C148.802 39.131 148.675 39.2856 148.536 39.4403C147.514 40.5774 145.869 41.7297 143.446 41.7297C141.964 41.7297 140.387 41.3197 139.167 40.4244C137.93 39.517 137.076 38.12 137.076 36.2237M139.594 36.121C139.593 37.6577 140.837 39.3837 143.513 39.3837C145.2 39.3837 146.537 38.5158 147.47 37.2141C148.41 35.9038 148.918 34.1778 148.918 32.5637V32.1317H148.313C146.833 32.1317 144.6 32.135 142.742 32.6731C141.817 32.9411 141.028 33.3302 140.474 33.8801C139.935 34.4164 139.594 35.1302 139.594 36.121ZM149.418 31.6317V32.5637C149.418 35.9817 147.276 39.8837 143.513 39.8837C140.578 39.8837 139.093 37.9507 139.094 36.1207C139.094 31.6317 145.378 31.6317 148.313 31.6317H149.418Z" fill="#DD9483"/>
<path d="M15.5178 48.6945C4.31177 45.2215 -1.98023 33.2795 1.49277 22.0735C4.96577 10.8675 16.9078 4.57651 28.1138 8.04951C39.3198 11.5225 45.6108 23.4645 42.1378 34.6705C38.6658 45.8765 26.7238 52.1675 15.5178 48.6945V48.6945ZM26.8708 12.0605C17.8768 9.27351 8.29177 14.3225 5.50377 23.3165C2.71677 32.3105 7.76577 41.8955 16.7598 44.6825C25.7538 47.4695 35.3388 42.4205 38.1258 33.4265C40.9148 24.4325 35.8648 14.8475 26.8708 12.0605Z" fill="#B7B9AE"/>
<path d="M15.4187 61.3534C14.7967 61.1604 13.6647 60.2204 15.5897 48.2504C15.6507 47.8684 16.0107 47.6094 16.3917 47.6704C16.7737 47.7304 17.0327 48.0914 16.9717 48.4724C16.2727 52.8184 15.7527 57.8494 15.9507 59.6124C16.4607 58.8404 17.5027 56.7664 19.4697 51.2054C19.9797 49.8134 21.0967 46.4784 22.5117 42.2564C25.4097 33.6064 29.7897 20.5344 33.1197 11.7544C33.6547 10.3434 34.1437 8.98744 34.5957 7.73644C36.4007 2.73344 37.2487 0.503444 38.4647 0.0724444C38.8207 -0.0535556 39.1967 -0.0145556 39.5277 0.184444C40.0307 0.488444 40.7917 0.947444 39.4727 9.20444C38.8547 13.0724 38.0577 16.8864 38.0497 16.9254C37.9707 17.3044 37.5997 17.5464 37.2217 17.4674C36.8377 17.3834 36.6017 17.0174 36.6807 16.6384C37.9867 10.4024 39.0957 3.15744 38.7687 1.51544C38.0757 2.21744 36.9327 5.38844 35.9137 8.21144C35.4607 9.46944 34.9687 10.8314 34.4307 12.2504C31.1107 21.0044 26.7357 34.0604 23.8417 42.7014C22.4237 46.9334 21.3037 50.2764 20.7897 51.6794C17.4697 61.0634 16.4747 61.6244 15.5187 61.3794C15.4867 61.3714 15.4537 61.3634 15.4187 61.3534V61.3534Z" fill="#B7B9AE"/>
</g>
<defs>
<clipPath id="clip0_688_197">
<rect width="160" height="61" fill="white"/>
</clipPath>
</defs>
</svg>
